<?xml version="1.0" encoding="utf-8"?>
<svg version="1.1" xmlns:xlink="http://www.w3.org/1999/xlink" width="35px" height="33px" xmlns="http://www.w3.org/2000/svg">
  <g transform="matrix(1 0 0 1 -22 -17 )">
    <path d="M 19.80929844097996 27.73467548076923  C 19.932720861172978 27.60907451923077  19.994432071269486 27.45372596153846  19.994432071269486 27.26862980769231  L 19.994432071269486 23.500600961538463  C 19.994432071269486 23.315504807692307  19.932720861172978 23.16015625  19.80929844097996 23.034555288461537  C 19.685876020786935 22.90895432692308  19.539717891610987 22.846153846153847  19.370824053452118 22.846153846153847  L 15.629175946547884 22.846153846153847  C 15.460282108389013 22.846153846153847  15.314123979213067 22.90895432692308  15.190701559020045 23.034555288461537  C 15.067279138827022 23.16015625  15.005567928730512 23.315504807692307  15.005567928730512 23.500600961538463  L 15.005567928730512 27.26862980769231  C 15.005567928730512 27.45372596153846  15.067279138827022 27.60907451923077  15.190701559020045 27.73467548076923  C 15.314123979213067 27.86027644230769  15.460282108389013 27.923076923076923  15.629175946547884 27.923076923076923  L 19.370824053452118 27.923076923076923  C 19.539717891610987 27.923076923076923  19.685876020786935 27.86027644230769  19.80929844097996 27.73467548076923  Z M 19.750835189309576 20.17878605769231  C 19.8742576095026 20.092848557692307  19.942464736451374 19.983774038461537  19.955456570155903 19.8515625  L 20.306236080178174 10.748798076923077  C 20.306236080178174 10.590144230769232  20.241276911655532 10.464543269230766  20.111358574610247 10.371995192307692  C 19.942464736451377 10.226562499999998  19.786562731997034 10.153846153846155  19.643652561247215 10.153846153846155  L 15.356347438752783 10.153846153846155  C 15.213437268002972 10.153846153846155  15.057535263548628 10.226562499999998  14.888641425389755 10.371995192307692  C 14.758723088344471 10.464543269230766  14.693763919821826 10.60336538461538  14.693763919821826 10.788461538461537  L 15.025055679287304 19.8515625  C 15.025055679287304 19.983774038461537  15.09001484780995 20.092848557692307  15.219933184855234 20.17878605769231  C 15.349851521900522 20.264723557692303  15.505753526354864 20.30769230769231  15.687639198218262 20.30769230769231  L 19.292873051224944 20.30769230769231  C 19.474758723088346 20.30769230769231  19.627412769116557 20.264723557692303  19.750835189309576 20.17878605769231  Z M 18.76670378619154 0.3569711538461544  C 19.156458797327396 0.5949519230769228  19.461766889383817 0.91887019230769  19.682628062360802 1.3287259615384632  L 34.64922048997773 29.251802884615387  C 35.10393466963623 30.084735576923077  35.0909428359317 30.91766826923077  34.61024498886414 31.750600961538463  C 34.38938381588716 32.13401442307692  34.08732368225687 32.43810096153847  33.70406458797327 32.66286057692308  C 33.32080549368968 32.88762019230769  32.9083147735709 33  32.46659242761692 33  L 2.533407572383074 33  C 2.0916852264291017 33  1.6791945063103195 32.88762019230769  1.2959354120267261 32.66286057692308  C 0.912676317743133 32.43810096153847  0.6106161841128434 32.13401442307692  0.3897550111358575 31.750600961538463  C -0.09094283593170009 30.91766826923077  -0.10393466963622869 30.084735576923077  0.35077951002227176 29.251802884615387  L 15.317371937639198 1.3287259615384632  C 15.538233110616186 0.91887019230769  15.843541202672608 0.5949519230769228  16.23329621380846 0.3569711538461544  C 16.623051224944323 0.11899038461538602  17.0452858203415 0  17.5 0  C 17.954714179658502 0  18.37694877505568 0.11899038461538602  18.76670378619154 0.3569711538461544  Z " fill-rule="nonzero" fill="#ead017" stroke="none" transform="matrix(1 0 0 1 22 17 )" />
  </g>
</svg>