<?xml version="1.0" encoding="utf-8"?>
<svg version="1.1" xmlns:xlink="http://www.w3.org/1999/xlink" width="15px" height="15px" viewBox="198 505  15 15" xmlns="http://www.w3.org/2000/svg">
  <path d="M 198.5 508  A 2.5 2.5 0 0 1 201 505.5 L 210 505.5  A 2.5 2.5 0 0 1 212.5 508 L 212.5 517  A 2.5 2.5 0 0 1 210 519.5 L 201 519.5  A 2.5 2.5 0 0 1 198.5 517 L 198.5 508  Z " fill-rule="nonzero" fill="#f0f0f0" stroke="none" />
  <path d="M 198.5 508  A 2.5 2.5 0 0 1 201 505.5 L 210 505.5  A 2.5 2.5 0 0 1 212.5 508 L 212.5 517  A 2.5 2.5 0 0 1 210 519.5 L 201 519.5  A 2.5 2.5 0 0 1 198.5 517 L 198.5 508  Z " stroke-width="1" stroke="#797979" fill="none" />
</svg>