<?xml version="1.0" encoding="utf-8"?>
<svg version="1.1" xmlns:xlink="http://www.w3.org/1999/xlink" width="35px" height="26px" xmlns="http://www.w3.org/2000/svg">
  <g transform="matrix(1 0 0 1 -256 -21 )">
    <path d="M 6.5625 13  L 10.9375 13  L 10.9375 21.666666666666668  L 6.5625 21.666666666666668  L 6.5625 13  Z M 13.125 4.333333333333332  L 17 4.333333333333332  L 17 21.666666666666668  L 13.125 21.666666666666668  L 13.125 4.333333333333332  Z M 2.1875 23.833333333333332  L 35 23.833333333333332  L 35 26  L 0 26  L 0 0  L 2.1875 0  L 2.1875 23.833333333333332  Z M 19 8.666666666666668  L 24 8.666666666666668  L 24 21.666666666666668  L 19 21.666666666666668  L 19 8.666666666666668  Z M 26 2.166666666666668  L 30 2.166666666666668  L 30 21.666666666666668  L 26 21.666666666666668  L 26 2.166666666666668  Z " fill-rule="nonzero" fill="#ead017" stroke="none" transform="matrix(1 0 0 1 256 21 )" />
  </g>
</svg>