<?xml version="1.0" encoding="utf-8"?>
<svg version="1.1" xmlns:xlink="http://www.w3.org/1999/xlink" width="15px" height="15px" viewBox="70 366  15 15" xmlns="http://www.w3.org/2000/svg">
  <path d="M 70.5 369  A 2.5 2.5 0 0 1 73 366.5 L 82 366.5  A 2.5 2.5 0 0 1 84.5 369 L 84.5 378  A 2.5 2.5 0 0 1 82 380.5 L 73 380.5  A 2.5 2.5 0 0 1 70.5 378 L 70.5 369  Z " fill-rule="nonzero" fill="#f0f0f0" stroke="none" />
  <path d="M 70.5 369  A 2.5 2.5 0 0 1 73 366.5 L 82 366.5  A 2.5 2.5 0 0 1 84.5 369 L 84.5 378  A 2.5 2.5 0 0 1 82 380.5 L 73 380.5  A 2.5 2.5 0 0 1 70.5 378 L 70.5 369  Z " stroke-width="1" stroke="#797979" fill="none" />
  <path d="M 73.21428571428571 373.5  L 76.42857142857143 376.7142857142857  L 81.78571428571429 369.2142857142857  " stroke-width="3.2142857142857144" stroke="#797979" fill="none" />
</svg>