<?xml version="1.0" encoding="utf-8"?>
<svg version="1.1" xmlns:xlink="http://www.w3.org/1999/xlink" width="35px" height="33px" xmlns="http://www.w3.org/2000/svg">
  <g transform="matrix(1 0 0 1 -31 -17 )">
    <path d="M 19.80929844097996 27.734675480769226  C 19.93272086117298 27.609074519230774  19.994432071269486 27.45372596153846  19.994432071269486 27.268629807692307  L 19.994432071269486 24  L 19.994432071269486 23.500600961538467  C 19.994432071269486 23.315504807692307  19.93272086117298 23.16015625  19.80929844097996 23.034555288461533  C 19.685876020786935 22.90895432692308  19.53971789161099 22.846153846153847  19.370824053452118 22.846153846153847  L 15.629175946547882 22.846153846153847  C 15.46028210838901 22.846153846153847  15.314123979213065 22.90895432692308  15.190701559020042 23.034555288461533  C 15.067279138827018 23.16015625  15.005567928730514 23.315504807692307  15.005567928730514 23.500600961538467  L 15.005567928730514 27.268629807692307  C 15.005567928730514 27.45372596153846  15.067279138827018 27.609074519230774  15.190701559020042 27.734675480769226  C 15.314123979213065 27.860276442307693  15.46028210838901 27.92307692307692  15.629175946547882 27.92307692307692  L 19.370824053452118 27.92307692307692  C 19.53971789161099 27.92307692307692  19.685876020786935 27.860276442307693  19.80929844097996 27.734675480769226  Z M 19.750835189309576 20.178786057692307  C 19.8742576095026 20.092848557692307  19.94246473645137 19.983774038461533  19.955456570155903 19.8515625  L 20.306236080178174 10.748798076923077  C 20.306236080178174 10.590144230769234  20.241276911655532 10.464543269230766  20.11135857461025 10.371995192307693  C 19.942464736451377 10.2265625  19.786562731997037 10.153846153846153  19.643652561247215 10.153846153846153  L 15.356347438752785 10.153846153846153  C 15.21343726800297 10.153846153846153  15.05753526354863 10.2265625  14.888641425389757 10.371995192307693  C 14.758723088344468 10.464543269230766  14.693763919821826 10.60336538461538  14.693763919821826 10.788461538461537  L 15.025055679287306 19.8515625  C 15.025055679287306 19.983774038461533  15.090014847809954 20.092848557692307  15.219933184855236 20.178786057692307  C 15.349851521900518 20.264723557692307  15.505753526354866 20.307692307692307  15.687639198218264 20.307692307692307  L 19.292873051224944 20.307692307692307  C 19.474758723088343 20.307692307692307  19.62741276911656 20.264723557692307  19.750835189309576 20.178786057692307  Z M 18.766703786191542 0.3569711538461533  C 19.156458797327396 0.5949519230769234  19.461766889383817 0.9188701923076898  19.682628062360806 1.3287259615384635  L 34.64922048997772 29.251802884615387  C 35.10393466963623 30.08473557692308  35.0909428359317 30.917668269230774  34.61024498886414 31.750600961538467  C 34.38938381588716 32.13401442307692  34.08732368225688 32.43810096153847  33.70406458797328 32.66286057692308  C 33.320805493689676 32.88762019230769  32.9083147735709 33  32.46659242761692 33  L 2.5334075723830765 33  C 2.0916852264290995 33  1.679194506310317 32.88762019230769  1.2959354120267292 32.66286057692308  C 0.9126763177431343 32.43810096153847  0.6106161841128426 32.13401442307692  0.38975501113585764 31.750600961538467  C -0.09094283593169905 30.917668269230774  -0.103934669636228 30.08473557692308  0.3507795100222708 29.251802884615387  L 15.317371937639194 1.3287259615384635  C 15.53823311061619 0.9188701923076898  15.843541202672611 0.5949519230769234  16.233296213808458 0.3569711538461533  C 16.62305122494432 0.1189903846153868  17.045285820341505 0  17.5 0  C 17.954714179658502 0  18.37694877505568 0.1189903846153868  18.766703786191542 0.3569711538461533  Z " fill-rule="nonzero" fill="#ead017" stroke="none" transform="matrix(1 0 0 1 31 17 )" />
  </g>
</svg>