<?xml version="1.0" encoding="utf-8"?>
<svg version="1.1" xmlns:xlink="http://www.w3.org/1999/xlink" width="31px" height="34px" xmlns="http://www.w3.org/2000/svg">
  <g transform="matrix(1 0 0 1 -102 -17 )">
    <path d="M 2.3846153846153846 26.107142857142854  L 2.3846153846153846 31.571428571428573  L 7.75 31.571428571428573  L 7.75 26.107142857142854  L 2.3846153846153846 26.107142857142854  Z M 8.942307692307692 26.107142857142854  L 8.942307692307692 31.571428571428573  L 14.903846153846155 31.571428571428573  L 14.903846153846155 26.107142857142854  L 8.942307692307692 26.107142857142854  Z M 2.3846153846153846 18.821428571428573  L 2.3846153846153846 24.892857142857146  L 7.75 24.892857142857146  L 7.75 18.821428571428573  L 2.3846153846153846 18.821428571428573  Z M 8.942307692307692 18.821428571428573  L 8.942307692307692 24.892857142857146  L 14.903846153846155 24.892857142857146  L 14.903846153846155 18.821428571428573  L 8.942307692307692 18.821428571428573  Z M 2.3846153846153846 12.14285714285714  L 2.3846153846153846 17.607142857142854  L 7.75 17.607142857142854  L 7.75 12.14285714285714  L 2.3846153846153846 12.14285714285714  Z M 16.096153846153847 26.107142857142854  L 16.096153846153847 31.571428571428573  L 22.05769230769231 31.571428571428573  L 22.05769230769231 26.107142857142854  L 16.096153846153847 26.107142857142854  Z M 8.942307692307692 12.14285714285714  L 8.942307692307692 17.607142857142854  L 14.903846153846155 17.607142857142854  L 14.903846153846155 12.14285714285714  L 8.942307692307692 12.14285714285714  Z M 23.25 26.107142857142854  L 23.25 31.571428571428573  L 28.615384615384617 31.571428571428573  L 28.615384615384617 26.107142857142854  L 23.25 26.107142857142854  Z M 16.096153846153847 18.821428571428573  L 16.096153846153847 24.892857142857146  L 22.05769230769231 24.892857142857146  L 22.05769230769231 18.821428571428573  L 16.096153846153847 18.821428571428573  Z M 9.361478365384615 8.926897321428573  C 9.479467147435898 8.80673363095238  9.538461538461538 8.66443452380952  9.538461538461538 8.5  L 9.538461538461538 3.0357142857142865  C 9.538461538461538 2.871279761904762  9.479467147435898 2.7289806547619033  9.361478365384615 2.6088169642857135  C 9.243489583333334 2.48865327380952  9.103766025641026 2.4285714285714275  8.942307692307692 2.4285714285714275  L 7.75 2.4285714285714275  C 7.588541666666667 2.4285714285714275  7.4488181089743595 2.48865327380952  7.3308293269230775 2.6088169642857135  C 7.212840544871794 2.7289806547619033  7.153846153846154 2.871279761904762  7.153846153846154 3.0357142857142865  L 7.153846153846154 8.5  C 7.153846153846154 8.66443452380952  7.212840544871794 8.80673363095238  7.3308293269230775 8.926897321428573  C 7.4488181089743595 9.047061011904763  7.588541666666667 9.10714285714286  7.75 9.10714285714286  L 8.942307692307692 9.10714285714286  C 9.103766025641026 9.10714285714286  9.243489583333334 9.047061011904763  9.361478365384615 8.926897321428573  Z M 23.25 18.821428571428573  L 23.25 24.892857142857146  L 28.615384615384617 24.892857142857146  L 28.615384615384617 18.821428571428573  L 23.25 18.821428571428573  Z M 16.096153846153847 12.14285714285714  L 16.096153846153847 17.607142857142854  L 22.05769230769231 17.607142857142854  L 22.05769230769231 12.14285714285714  L 16.096153846153847 12.14285714285714  Z M 23.25 12.14285714285714  L 23.25 17.607142857142854  L 28.615384615384617 17.607142857142854  L 28.615384615384617 12.14285714285714  L 23.25 12.14285714285714  Z M 23.669170673076923 8.926897321428573  C 23.787159455128208 8.80673363095238  23.846153846153847 8.66443452380952  23.846153846153847 8.5  L 23.846153846153847 3.0357142857142865  C 23.846153846153847 2.871279761904762  23.787159455128208 2.7289806547619033  23.669170673076923 2.6088169642857135  C 23.551181891025642 2.48865327380952  23.411458333333336 2.4285714285714275  23.25 2.4285714285714275  L 22.05769230769231 2.4285714285714275  C 21.896233974358978 2.4285714285714275  21.756510416666668 2.48865327380952  21.638521634615383 2.6088169642857135  C 21.520532852564102 2.7289806547619033  21.46153846153846 2.871279761904762  21.46153846153846 3.0357142857142865  L 21.46153846153846 8.5  C 21.46153846153846 8.66443452380952  21.520532852564102 8.80673363095238  21.638521634615383 8.926897321428573  C 21.756510416666668 9.047061011904763  21.896233974358978 9.10714285714286  22.05769230769231 9.10714285714286  L 23.25 9.10714285714286  C 23.411458333333336 9.10714285714286  23.551181891025642 9.047061011904763  23.669170673076923 8.926897321428573  Z M 30.29206730769231 5.578125  C 30.764022435897438 6.058779761904762  31 6.62797619047619  31 7.2857142857142865  L 31 31.571428571428573  C 31 32.22916666666667  30.764022435897438 32.798363095238095  30.29206730769231 33.27901785714286  C 29.820112179487182 33.75967261904762  29.261217948717952 34  28.615384615384617 34  L 2.3846153846153846 34  C 1.7387820512820515 34  1.1798878205128207 33.75967261904762  0.7079326923076923 33.27901785714286  C 0.2359775641025641 32.798363095238095  0 32.22916666666667  0 31.571428571428573  L 0 7.2857142857142865  C 0 6.62797619047619  0.2359775641025641 6.058779761904762  0.7079326923076923 5.578125  C 1.1798878205128207 5.097470238095234  1.7387820512820515 4.8571428571428585  2.3846153846153846 4.8571428571428585  L 4.769230769230769 4.8571428571428585  L 4.769230769230769 3.0357142857142865  C 4.769230769230769 2.2008928571428585  5.061097756410256 1.486235119047617  5.644831730769231 0.8917410714285725  C 6.228565705128206 0.29724702380952417  6.930288461538462 0  7.75 0  L 8.942307692307692 0  C 9.76201923076923 0  10.463741987179489 0.29724702380952417  11.047475961538462 0.8917410714285725  C 11.631209935897436 1.486235119047617  11.923076923076923 2.2008928571428585  11.923076923076923 3.0357142857142865  L 11.923076923076923 4.8571428571428585  L 19.076923076923077 4.8571428571428585  L 19.076923076923077 3.0357142857142865  C 19.076923076923077 2.2008928571428585  19.368790064102566 1.486235119047617  19.95252403846154 0.8917410714285725  C 20.536258012820518 0.29724702380952417  21.23798076923077 0  22.05769230769231 0  L 23.25 0  C 24.06971153846154 0  24.771434294871796 0.29724702380952417  25.35516826923077 0.8917410714285725  C 25.938902243589748 1.486235119047617  26.23076923076923 2.2008928571428585  26.23076923076923 3.0357142857142865  L 26.23076923076923 4.8571428571428585  L 28.615384615384617 4.8571428571428585  C 29.261217948717952 4.8571428571428585  29.820112179487182 5.097470238095234  30.29206730769231 5.578125  Z " fill-rule="nonzero" fill="#aaaaaa" stroke="none" transform="matrix(1 0 0 1 102 17 )" />
  </g>
</svg>