<?xml version="1.0" encoding="utf-8"?>
<svg version="1.1" xmlns:xlink="http://www.w3.org/1999/xlink" width="35px" height="32px" xmlns="http://www.w3.org/2000/svg">
  <g transform="matrix(1 0 0 1 -334 -18 )">
    <path d="M 0 6.857142857142858  L 17.5 0  L 35 6.857142857142858  L 35 9.142857142857142  L 32.666666666666664 9.142857142857142  C 32.666666666666664 9.452380952380953  32.54210069444445 9.720238095238095  32.29296875 9.946428571428573  C 32.04383680555556 10.172619047619044  31.749131944444446 10.285714285714285  31.408854166666664 10.285714285714285  L 3.591145833333333 10.285714285714285  C 3.250868055555556 10.285714285714285  2.9561631944444446 10.172619047619044  2.70703125 9.946428571428573  C 2.4578993055555554 9.720238095238095  2.3333333333333335 9.452380952380953  2.3333333333333335 9.142857142857142  L 0 9.142857142857142  L 0 6.857142857142858  Z M 5 25.142857142857142  L 5 11.428571428571427  L 10 11.428571428571427  L 10 25.142857142857142  L 12 25.142857142857142  L 12 11.428571428571427  L 17 11.428571428571427  L 17 25.142857142857142  L 18 25.142857142857142  L 18 11.428571428571427  L 23 11.428571428571427  L 23 25.142857142857142  L 25 25.142857142857142  L 25 11.428571428571427  L 30 11.428571428571427  L 30 25.142857142857142  L 31.408854166666664 25.142857142857142  C 31.749131944444446 25.142857142857142  32.04383680555556 25.25595238095238  32.29296875 25.482142857142858  C 32.54210069444445 25.708333333333336  32.666666666666664 25.976190476190478  32.666666666666664 26.285714285714285  L 32.666666666666664 27  L 2.3333333333333335 27  L 2.3333333333333335 26.285714285714285  C 2.3333333333333335 25.976190476190478  2.4578993055555554 25.708333333333336  2.70703125 25.482142857142858  C 2.9561631944444446 25.25595238095238  3.250868055555556 25.142857142857142  3.591145833333333 25.142857142857142  L 5 25.142857142857142  Z M 1.2578125 28  L 33.7421875 28  C 34.08246527777778 28.571428571428573  34.37717013888889 28.684523809523807  34.626302083333336 28.910714285714285  C 34.875434027777786 29.136904761904763  35.00000000000001 29.404761904761905  35 29.714285714285715  L 35 32  L 0 32  L 0 29.714285714285715  C 0 29.404761904761905  0.12456597222222222 29.136904761904763  0.3736979166666667 28.910714285714285  C 0.6228298611111112 28.684523809523807  0.9175347222222222 28.571428571428573  1.2578125 28  Z " fill-rule="nonzero" fill="#aaaaaa" stroke="none" transform="matrix(1 0 0 1 334 18 )" />
  </g>
</svg>