<?xml version="1.0" encoding="utf-8"?>
<svg version="1.1" xmlns:xlink="http://www.w3.org/1999/xlink" width="15px" height="15px" viewBox="80 505  15 15" xmlns="http://www.w3.org/2000/svg">
  <path d="M 80.5 508  A 2.5 2.5 0 0 1 83 505.5 L 92 505.5  A 2.5 2.5 0 0 1 94.5 508 L 94.5 517  A 2.5 2.5 0 0 1 92 519.5 L 83 519.5  A 2.5 2.5 0 0 1 80.5 517 L 80.5 508  Z " fill-rule="nonzero" fill="#f0f0f0" stroke="none" />
  <path d="M 80.5 508  A 2.5 2.5 0 0 1 83 505.5 L 92 505.5  A 2.5 2.5 0 0 1 94.5 508 L 94.5 517  A 2.5 2.5 0 0 1 92 519.5 L 83 519.5  A 2.5 2.5 0 0 1 80.5 517 L 80.5 508  Z " stroke-width="1" stroke="#797979" fill="none" />
  <path d="M 83.21428571428571 512.5  L 86.42857142857143 515.7142857142858  L 91.78571428571429 508.2142857142857  " stroke-width="3.2142857142857144" stroke="#797979" fill="none" />
</svg>